<?xml version="1.0" encoding="UTF-8" standalone="no"?> <svg xmlns="http://www.w3.org/2000/svg" xmlns:xlink="http://www.w3.org/1999/xlink" xmlns:serif="http://www.serif.com/" width="100%" height="100%" viewBox="0 0 1123 590" version="1.1" xml:space="preserve" style="fill-rule:evenodd;clip-rule:evenodd;stroke-linejoin:round;stroke-miterlimit:2;"><g transform="matrix(1,0,0,1,-1300,-720)"><g id="css-line-height" transform="matrix(1.40375,0,0,1.22917,106.813,720)"><rect x="850" y="0" width="800" height="480" style="fill:white;"></rect><g><g transform="matrix(0.995139,0,0,1.00213,454.386,3.99776)"><path d="M1190,21.989C1190,14.82 1184.87,9 1178.55,9L420.454,9C414.132,9 409,14.82 409,21.989L409,449.011C409,456.18 414.132,462 420.454,462L1178.55,462C1184.87,462 1190,456.18 1190,449.011L1190,21.989Z" style="fill:rgb(239,239,239);"></path></g><g transform="matrix(0.673102,0,0,0.768706,1169.28,375.208)"><g transform="matrix(0.58,0,0,0.58,40,14)"><g transform="matrix(2.06186,0,0,2.06186,-51.3621,-152.271)"><circle cx="49.161" cy="98.101" r="24.25" style="fill:rgb(36,150,211);"></circle></g><g transform="matrix(0.280038,0,0,0.280038,-1108.62,-1461.03)"><path d="M4036.6,5339.22C4036.57,5338.23 4036.58,5337.23 4036.63,5336.22C4038.32,5300.08 4063.04,5266.17 4097.95,5253.85C4107.85,5250.36 4118.4,5248.62 4128.83,5248.64C4161.97,5248.83 4194.49,5268.09 4210.19,5298.26C4224.97,5326.66 4223.56,5362.8 4206.06,5390.15C4198.02,5402.72 4186.77,5413.35 4173.92,5420.66C4173.55,5420.87 4173.18,5421.06 4172.79,5421.24C4171.57,5422.11 4170.35,5422.96 4169.22,5423.85C4155.72,5434.54 4150.78,5454.79 4158.25,5470.53C4166.52,5487.94 4188.92,5497.64 4208.03,5489.55C4225.49,5482.17 4235.66,5460.87 4229.7,5442.19C4229.7,5442.19 4228.44,5437.16 4229.47,5433.25C4231.95,5423.82 4244.36,5418.32 4253.18,5423.61C4257.82,5426.4 4260.16,5431.64 4261.55,5437.29C4266.64,5458.09 4261.62,5481.14 4248.25,5497.93C4228.63,5522.59 4191.75,5531.71 4162.5,5517.61C4141.32,5507.4 4125.9,5485.99 4123.07,5462.59C4119.84,5435.82 4133.36,5407.9 4156.6,5393.74C4156.66,5393.69 4156.73,5393.65 4156.8,5393.61C4164.55,5388.61 4172.08,5382.9 4177.45,5375.35C4189.08,5359.01 4191.74,5336.68 4184.09,5317.98C4172.56,5289.76 4137.61,5272.75 4106.88,5284.66C4084.6,5293.3 4068.62,5316.16 4068.52,5340.44C4068.52,5340.44 4068.52,5340.47 4068.52,5340.53L4068.52,5340.77L4068.52,5488C4068.52,5488.1 4068.51,5488.2 4068.51,5488.29C4068.53,5488.43 4068.55,5488.56 4068.56,5488.7C4069.13,5492.81 4077.51,5494.31 4077.52,5488.04L4077.52,5488.03L4077.52,5488L4077.52,5340.77C4077.56,5339.53 4077.62,5338.73 4077.71,5338.12C4077.73,5334.18 4078.46,5330.03 4079.64,5326.08C4085.79,5305.42 4105.65,5289.86 4128.19,5289.64C4128.52,5289.64 4128.52,5289.64 4128.86,5289.64C4148.51,5289.83 4167.31,5302.05 4175.26,5320.21C4181.85,5335.27 4180.6,5353.49 4171.83,5367.57C4167.03,5375.28 4160.26,5381.86 4152.07,5385.87C4142.21,5390.7 4128.08,5382.41 4129.08,5370.2C4129.54,5364.6 4133.41,5359.85 4138.29,5356.93C4145.79,5352.37 4149.52,5342.4 4146.29,5333.89C4142.59,5324.13 4129.97,5318.85 4120.3,5323.51C4113.91,5326.58 4109.54,5333.36 4109.52,5340.67L4109.52,5340.7L4109.52,5340.77L4109.52,5488C4109.52,5488.09 4109.52,5488.17 4109.51,5488.26C4109.52,5488.51 4109.52,5488.76 4109.51,5489.01C4109.1,5505.07 4096.77,5520.15 4081.04,5523.69C4065.01,5527.29 4047.18,5519.23 4039.85,5503.31C4037.91,5499.09 4036.68,5494.31 4036.62,5489.77C4036.54,5489.04 4036.55,5488.8 4036.52,5488L4036.52,5340.77C4036.54,5340.05 4036.54,5339.78 4036.6,5339.22ZM4220.9,5389.66C4230.83,5389.66 4238.9,5397.73 4238.9,5407.66C4238.9,5417.6 4230.83,5425.66 4220.9,5425.66C4210.96,5425.66 4202.9,5417.6 4202.9,5407.66C4202.9,5397.73 4210.96,5389.66 4220.9,5389.66Z" style="fill:white;fill-rule:nonzero;"></path></g></g><g transform="matrix(1.24431,0,0,1.24431,-58.0289,-7.12995)"><g transform="matrix(43.3976,0,0,43.3976,127.77,52.5584)"><path d="M0.288,-0.394C0.276,-0.394 0.264,-0.391 0.252,-0.385C0.24,-0.379 0.229,-0.371 0.22,-0.361C0.211,-0.35 0.203,-0.338 0.197,-0.323C0.191,-0.308 0.188,-0.292 0.188,-0.274L0.188,-0L0.074,-0L0.074,-0.252C0.074,-0.292 0.071,-0.325 0.066,-0.353C0.061,-0.38 0.055,-0.401 0.049,-0.418C0.042,-0.437 0.034,-0.453 0.025,-0.465L0.115,-0.501C0.121,-0.494 0.127,-0.485 0.134,-0.474C0.139,-0.465 0.145,-0.454 0.15,-0.441C0.155,-0.428 0.16,-0.413 0.163,-0.396C0.176,-0.435 0.196,-0.463 0.221,-0.48C0.246,-0.497 0.275,-0.505 0.307,-0.505C0.322,-0.505 0.337,-0.503 0.35,-0.5C0.363,-0.496 0.37,-0.494 0.369,-0.494L0.337,-0.383C0.338,-0.383 0.334,-0.385 0.326,-0.389C0.317,-0.392 0.305,-0.394 0.288,-0.394Z" style="fill:rgb(136,136,136);fill-rule:nonzero;"></path></g><g transform="matrix(43.3976,0,0,43.3976,142.915,52.5584)"><path d="M0.17,0.004C0.135,0.004 0.108,-0.007 0.089,-0.028C0.07,-0.049 0.061,-0.076 0.061,-0.109L0.061,-0.498L0.175,-0.498L0.175,-0.119C0.175,-0.104 0.177,-0.093 0.182,-0.088C0.187,-0.083 0.194,-0.08 0.203,-0.08L0.212,-0.08C0.215,-0.08 0.217,-0.08 0.22,-0.081C0.223,-0.081 0.226,-0.081 0.229,-0.082L0.241,-0.01C0.236,-0.007 0.23,-0.005 0.223,-0.003C0.217,-0.001 0.21,0.001 0.201,0.002C0.192,0.003 0.181,0.004 0.17,0.004ZM0.12,-0.72C0.141,-0.72 0.158,-0.714 0.169,-0.701C0.18,-0.688 0.186,-0.672 0.186,-0.652C0.186,-0.632 0.18,-0.615 0.169,-0.602C0.157,-0.589 0.14,-0.582 0.117,-0.582C0.096,-0.582 0.079,-0.588 0.068,-0.602C0.056,-0.615 0.05,-0.63 0.05,-0.649C0.05,-0.67 0.056,-0.687 0.068,-0.7C0.079,-0.713 0.097,-0.72 0.12,-0.72Z" style="fill:rgb(136,136,136);fill-rule:nonzero;"></path></g><g transform="matrix(43.3976,0,0,43.3976,151.855,52.5584)"><path d="M0.469,-0.498L0.471,-0.49C0.472,-0.484 0.473,-0.476 0.474,-0.467C0.475,-0.457 0.476,-0.446 0.478,-0.434C0.479,-0.421 0.479,-0.409 0.479,-0.396C0.479,-0.322 0.474,-0.26 0.463,-0.209C0.452,-0.158 0.435,-0.116 0.413,-0.085C0.39,-0.053 0.362,-0.03 0.328,-0.016C0.293,-0.002 0.253,0.005 0.206,0.005C0.153,0.005 0.116,-0.01 0.094,-0.041C0.071,-0.071 0.06,-0.113 0.06,-0.166L0.06,-0.498L0.174,-0.498L0.174,-0.169C0.174,-0.141 0.179,-0.118 0.189,-0.101C0.199,-0.084 0.216,-0.075 0.24,-0.075C0.264,-0.075 0.284,-0.084 0.3,-0.102C0.316,-0.12 0.329,-0.143 0.338,-0.173C0.347,-0.202 0.354,-0.235 0.358,-0.272C0.362,-0.309 0.364,-0.346 0.364,-0.384C0.364,-0.398 0.364,-0.412 0.363,-0.426C0.362,-0.439 0.36,-0.451 0.359,-0.462C0.357,-0.473 0.356,-0.481 0.355,-0.488L0.353,-0.498L0.469,-0.498Z" style="fill:rgb(136,136,136);fill-rule:nonzero;"></path></g><g transform="matrix(43.3976,0,0,43.3976,172.426,52.5584)"><path d="M0.035,-0.237C0.035,-0.282 0.041,-0.321 0.054,-0.355C0.066,-0.389 0.083,-0.418 0.105,-0.441C0.126,-0.464 0.152,-0.481 0.181,-0.493C0.21,-0.504 0.242,-0.51 0.276,-0.51C0.306,-0.51 0.331,-0.506 0.353,-0.499C0.374,-0.492 0.391,-0.482 0.404,-0.469C0.417,-0.456 0.427,-0.441 0.434,-0.424C0.44,-0.407 0.443,-0.388 0.443,-0.368C0.443,-0.344 0.436,-0.321 0.423,-0.3C0.41,-0.278 0.391,-0.259 0.366,-0.243C0.341,-0.226 0.31,-0.213 0.275,-0.204C0.24,-0.194 0.2,-0.189 0.156,-0.188C0.158,-0.173 0.161,-0.158 0.166,-0.145C0.17,-0.131 0.176,-0.119 0.185,-0.109C0.193,-0.098 0.204,-0.09 0.217,-0.084C0.23,-0.078 0.247,-0.075 0.267,-0.075C0.282,-0.075 0.297,-0.077 0.314,-0.08C0.331,-0.083 0.346,-0.087 0.36,-0.092C0.377,-0.097 0.393,-0.103 0.409,-0.11L0.439,-0.039C0.422,-0.03 0.403,-0.023 0.383,-0.016C0.366,-0.01 0.346,-0.005 0.323,-0C0.3,0.005 0.276,0.007 0.251,0.007C0.212,0.007 0.179,0.001 0.152,-0.011C0.125,-0.022 0.102,-0.039 0.085,-0.06C0.068,-0.081 0.055,-0.107 0.047,-0.137C0.039,-0.167 0.035,-0.2 0.035,-0.237ZM0.267,-0.432C0.245,-0.432 0.227,-0.427 0.213,-0.417C0.198,-0.406 0.187,-0.393 0.178,-0.377C0.169,-0.36 0.163,-0.342 0.16,-0.322C0.156,-0.301 0.154,-0.281 0.153,-0.26C0.185,-0.261 0.212,-0.266 0.235,-0.273C0.257,-0.28 0.275,-0.288 0.289,-0.299C0.303,-0.309 0.313,-0.32 0.32,-0.332C0.326,-0.344 0.329,-0.356 0.329,-0.368C0.329,-0.387 0.323,-0.403 0.312,-0.415C0.301,-0.426 0.286,-0.432 0.267,-0.432Z" style="fill:rgb(136,136,136);fill-rule:nonzero;"></path></g><g transform="matrix(43.3976,0,0,43.3976,191.217,52.5584)"><path d="M0.288,-0.394C0.276,-0.394 0.264,-0.391 0.252,-0.385C0.24,-0.379 0.229,-0.371 0.22,-0.361C0.211,-0.35 0.203,-0.338 0.197,-0.323C0.191,-0.308 0.188,-0.292 0.188,-0.274L0.188,-0L0.074,-0L0.074,-0.252C0.074,-0.292 0.071,-0.325 0.066,-0.353C0.061,-0.38 0.055,-0.401 0.049,-0.418C0.042,-0.437 0.034,-0.453 0.025,-0.465L0.115,-0.501C0.121,-0.494 0.127,-0.485 0.134,-0.474C0.139,-0.465 0.145,-0.454 0.15,-0.441C0.155,-0.428 0.16,-0.413 0.163,-0.396C0.176,-0.435 0.196,-0.463 0.221,-0.48C0.246,-0.497 0.275,-0.505 0.307,-0.505C0.322,-0.505 0.337,-0.503 0.35,-0.5C0.363,-0.496 0.37,-0.494 0.369,-0.494L0.337,-0.383C0.338,-0.383 0.334,-0.385 0.326,-0.389C0.317,-0.392 0.305,-0.394 0.288,-0.394Z" style="fill:rgb(136,136,136);fill-rule:nonzero;"></path></g></g></g><g transform="matrix(1.07584,0,0,1.22864,-98.5598,-48.9549)"><g transform="matrix(1.4758,0,0,1.1076,128.941,-27.5456)"><rect x="566" y="256" width="392" height="35" style="fill:rgb(36,150,211);"></rect></g><g transform="matrix(1,0,0,1,548.934,-55.6012)"><g transform="matrix(23.8378,0,0,23.8378,601.289,340.066)"><path d="M0.615,-0.761L0.532,-0.761L0.532,-0.436L0.168,-0.436L0.168,-0.761L0.085,-0.761L0.085,-0L0.168,-0L0.168,-0.364L0.532,-0.364L0.532,-0L0.615,-0L0.615,-0.761Z" style="fill:white;fill-rule:nonzero;"></path></g><g transform="matrix(23.8378,0,0,23.8378,618.452,340.066)"><path d="M0.531,-0.761L-0.001,-0.761L-0.001,-0.691L0.223,-0.691L0.223,-0L0.306,-0L0.306,-0.691L0.531,-0.691L0.531,-0.761Z" style="fill:white;fill-rule:nonzero;"></path></g><g transform="matrix(23.8378,0,0,23.8378,631.539,340.066)"><path d="M0.756,-0.762L0.652,-0.762L0.513,-0.375C0.479,-0.277 0.453,-0.197 0.434,-0.12L0.431,-0.12C0.411,-0.199 0.386,-0.28 0.354,-0.375L0.22,-0.762L0.118,-0.762L0.065,-0L0.144,-0L0.165,-0.335C0.172,-0.452 0.178,-0.578 0.18,-0.671L0.183,-0.671C0.204,-0.583 0.233,-0.487 0.27,-0.377L0.397,-0.003L0.458,-0.003L0.594,-0.385C0.631,-0.491 0.662,-0.585 0.687,-0.671L0.69,-0.671C0.689,-0.593 0.697,-0.452 0.703,-0.343L0.722,-0L0.804,-0L0.756,-0.762Z" style="fill:white;fill-rule:nonzero;"></path></g><g transform="matrix(23.8378,0,0,23.8378,652.707,340.066)"><path d="M0.483,-0.071L0.168,-0.071L0.168,-0.762L0.085,-0.762L0.085,-0L0.483,-0L0.483,-0.071Z" style="fill:white;fill-rule:nonzero;"></path></g><g transform="matrix(23.8378,0,0,23.8378,671.277,340.066)"><path d="M0.553,-0.411C0.539,-0.317 0.517,-0.239 0.482,-0.182C0.428,-0.244 0.353,-0.332 0.29,-0.408L0.29,-0.412C0.41,-0.474 0.456,-0.536 0.456,-0.616C0.456,-0.715 0.386,-0.774 0.299,-0.774C0.181,-0.774 0.117,-0.682 0.117,-0.59C0.117,-0.535 0.141,-0.479 0.18,-0.427L0.18,-0.424C0.094,-0.373 0.035,-0.301 0.035,-0.2C0.035,-0.086 0.118,0.012 0.258,0.012C0.338,0.012 0.409,-0.014 0.475,-0.077C0.506,-0.044 0.526,-0.023 0.547,-0L0.647,-0C0.6,-0.052 0.563,-0.092 0.526,-0.132C0.581,-0.199 0.611,-0.295 0.63,-0.411L0.553,-0.411ZM0.272,-0.052C0.18,-0.052 0.116,-0.122 0.116,-0.212C0.116,-0.297 0.175,-0.348 0.218,-0.376C0.3,-0.278 0.385,-0.182 0.433,-0.126C0.393,-0.079 0.334,-0.052 0.272,-0.052ZM0.291,-0.714C0.355,-0.714 0.381,-0.661 0.381,-0.611C0.381,-0.544 0.33,-0.5 0.251,-0.455C0.22,-0.497 0.194,-0.541 0.194,-0.598C0.194,-0.656 0.225,-0.714 0.291,-0.714Z" style="fill:white;fill-rule:nonzero;"></path></g><g transform="matrix(23.8378,0,0,23.8378,693.303,340.066)"><path d="M0.567,-0.09C0.529,-0.072 0.472,-0.059 0.414,-0.059C0.236,-0.059 0.128,-0.177 0.128,-0.377C0.128,-0.587 0.246,-0.703 0.419,-0.703C0.479,-0.703 0.528,-0.689 0.563,-0.672L0.585,-0.742C0.561,-0.754 0.508,-0.773 0.417,-0.773C0.194,-0.773 0.041,-0.62 0.041,-0.374C0.041,-0.116 0.199,0.011 0.395,0.011C0.482,0.011 0.55,-0.006 0.585,-0.023L0.567,-0.09Z" style="fill:white;fill-rule:nonzero;"></path></g><g transform="matrix(23.8378,0,0,23.8378,708.583,340.066)"><path d="M0.45,-0.737C0.421,-0.755 0.366,-0.773 0.294,-0.773C0.155,-0.773 0.061,-0.688 0.061,-0.572C0.061,-0.467 0.139,-0.4 0.254,-0.357C0.353,-0.317 0.394,-0.271 0.394,-0.196C0.394,-0.114 0.334,-0.059 0.232,-0.059C0.17,-0.059 0.109,-0.079 0.068,-0.106L0.045,-0.037C0.083,-0.01 0.158,0.011 0.227,0.011C0.391,0.011 0.479,-0.082 0.479,-0.203C0.479,-0.312 0.416,-0.375 0.293,-0.427C0.191,-0.47 0.145,-0.508 0.145,-0.583C0.145,-0.638 0.185,-0.703 0.291,-0.703C0.355,-0.703 0.403,-0.682 0.425,-0.668L0.45,-0.737Z" style="fill:white;fill-rule:nonzero;"></path></g><g transform="matrix(23.8378,0,0,23.8378,721.622,340.066)"><path d="M0.45,-0.737C0.421,-0.755 0.366,-0.773 0.294,-0.773C0.155,-0.773 0.061,-0.688 0.061,-0.572C0.061,-0.467 0.139,-0.4 0.254,-0.357C0.353,-0.317 0.394,-0.271 0.394,-0.196C0.394,-0.114 0.334,-0.059 0.232,-0.059C0.17,-0.059 0.109,-0.079 0.068,-0.106L0.045,-0.037C0.083,-0.01 0.158,0.011 0.227,0.011C0.391,0.011 0.479,-0.082 0.479,-0.203C0.479,-0.312 0.416,-0.375 0.293,-0.427C0.191,-0.47 0.145,-0.508 0.145,-0.583C0.145,-0.638 0.185,-0.703 0.291,-0.703C0.355,-0.703 0.403,-0.682 0.425,-0.668L0.45,-0.737Z" style="fill:white;fill-rule:nonzero;"></path></g><g transform="matrix(23.8378,0,0,23.8378,740.693,340.066)"><path d="M0.378,-0.411C0.456,-0.439 0.507,-0.504 0.507,-0.579C0.507,-0.636 0.486,-0.68 0.45,-0.711C0.405,-0.749 0.343,-0.767 0.249,-0.767C0.187,-0.767 0.127,-0.76 0.085,-0.751L0.085,-0.002C0.116,0.001 0.163,0.006 0.226,0.006C0.341,0.006 0.423,-0.016 0.474,-0.066C0.509,-0.1 0.535,-0.148 0.535,-0.216C0.535,-0.331 0.45,-0.391 0.378,-0.408L0.378,-0.411ZM0.168,-0.436L0.168,-0.695C0.183,-0.699 0.209,-0.702 0.253,-0.702C0.357,-0.702 0.423,-0.663 0.423,-0.573L0.423,-0.572C0.423,-0.494 0.358,-0.436 0.257,-0.436L0.168,-0.436ZM0.168,-0.372L0.248,-0.372C0.349,-0.372 0.448,-0.33 0.448,-0.216C0.448,-0.101 0.354,-0.06 0.249,-0.06C0.214,-0.06 0.187,-0.061 0.168,-0.065L0.168,-0.372Z" style="fill:white;fill-rule:nonzero;"></path></g><g transform="matrix(23.8378,0,0,23.8378,754.995,340.066)"><path d="M0.439,-0.341C0.439,-0.449 0.399,-0.558 0.245,-0.558C0.184,-0.558 0.123,-0.541 0.079,-0.512L0.099,-0.455C0.136,-0.481 0.185,-0.494 0.232,-0.494C0.356,-0.494 0.356,-0.39 0.356,-0.344C0.154,-0.345 0.04,-0.274 0.04,-0.143C0.04,-0.064 0.095,0.012 0.199,0.012C0.276,0.012 0.332,-0.027 0.36,-0.07L0.363,-0.07L0.371,-0L0.447,-0C0.44,-0.038 0.439,-0.085 0.439,-0.13L0.439,-0.341ZM0.357,-0.18C0.357,-0.114 0.3,-0.052 0.219,-0.052C0.169,-0.052 0.125,-0.083 0.125,-0.153C0.125,-0.268 0.254,-0.283 0.357,-0.283L0.357,-0.18Z" style="fill:white;fill-rule:nonzero;"></path></g><g transform="matrix(23.8378,0,0,23.8378,767.796,340.066)"><path d="M0.361,-0.525C0.332,-0.543 0.288,-0.558 0.236,-0.558C0.126,-0.558 0.058,-0.488 0.058,-0.403C0.058,-0.337 0.105,-0.286 0.197,-0.249C0.269,-0.22 0.298,-0.192 0.298,-0.141C0.298,-0.092 0.262,-0.053 0.189,-0.053C0.142,-0.053 0.095,-0.073 0.066,-0.09L0.043,-0.026C0.08,-0.004 0.132,0.011 0.186,0.011C0.305,0.011 0.379,-0.053 0.379,-0.15C0.379,-0.232 0.328,-0.278 0.24,-0.314C0.17,-0.344 0.139,-0.366 0.139,-0.413C0.139,-0.457 0.171,-0.494 0.231,-0.494C0.28,-0.494 0.317,-0.475 0.337,-0.462L0.361,-0.525Z" style="fill:white;fill-rule:nonzero;"></path></g><g transform="matrix(23.8378,0,0,23.8378,778.38,340.066)"><path d="M0.178,-0.698C0.178,-0.729 0.157,-0.754 0.124,-0.754C0.092,-0.754 0.069,-0.729 0.069,-0.698C0.069,-0.666 0.091,-0.641 0.123,-0.641C0.155,-0.641 0.178,-0.663 0.178,-0.698ZM0.165,-0.545L0.082,-0.545L0.082,-0L0.165,-0L0.165,-0.545Z" style="fill:white;fill-rule:nonzero;"></path></g><g transform="matrix(23.8378,0,0,23.8378,784.769,340.066)"><path d="M0.435,-0.084C0.408,-0.072 0.371,-0.057 0.317,-0.057C0.207,-0.057 0.128,-0.14 0.128,-0.272C0.128,-0.389 0.194,-0.49 0.32,-0.49C0.373,-0.49 0.409,-0.475 0.432,-0.462L0.453,-0.529C0.432,-0.54 0.383,-0.558 0.322,-0.558C0.154,-0.558 0.043,-0.435 0.043,-0.267C0.043,-0.1 0.146,0.011 0.302,0.011C0.372,0.011 0.426,-0.008 0.45,-0.02L0.435,-0.084Z" style="fill:white;fill-rule:nonzero;"></path></g><g transform="matrix(23.8378,0,0,23.8378,796.783,340.066)"><path d="M0.361,-0.525C0.332,-0.543 0.288,-0.558 0.236,-0.558C0.126,-0.558 0.058,-0.488 0.058,-0.403C0.058,-0.337 0.105,-0.286 0.197,-0.249C0.269,-0.22 0.298,-0.192 0.298,-0.141C0.298,-0.092 0.262,-0.053 0.189,-0.053C0.142,-0.053 0.095,-0.073 0.066,-0.09L0.043,-0.026C0.08,-0.004 0.132,0.011 0.186,0.011C0.305,0.011 0.379,-0.053 0.379,-0.15C0.379,-0.232 0.328,-0.278 0.24,-0.314C0.17,-0.344 0.139,-0.366 0.139,-0.413C0.139,-0.457 0.171,-0.494 0.231,-0.494C0.28,-0.494 0.317,-0.475 0.337,-0.462L0.361,-0.525Z" style="fill:white;fill-rule:nonzero;"></path></g></g></g></g><g transform="matrix(0.712378,0,0,0.813559,593.856,42.3051)"><g><g transform="matrix(64,0,0,64,485.958,133.96)"><path d="M0.529,-0.724L0.536,-0.772C0.489,-0.782 0.46,-0.787 0.443,-0.787C0.431,-0.787 0.426,-0.784 0.426,-0.777C0.426,-0.771 0.43,-0.764 0.455,-0.747L0.455,-0.623L0.346,-0.623L0.175,-0.627L0.17,-0.621L0.174,-0.523L0.174,-0.469L0.17,-0.348L0.252,-0.348L0.248,-0.469L0.248,-0.558L0.751,-0.558L0.751,-0.531C0.751,-0.257 0.568,-0.084 0.287,-0.045C0.304,-0.024 0.313,-0.004 0.323,0.018C0.626,-0.026 0.818,-0.224 0.829,-0.505C0.831,-0.544 0.831,-0.578 0.831,-0.621L0.825,-0.627L0.682,-0.623L0.529,-0.623L0.529,-0.724Z" style="fill:rgb(53,53,53);fill-rule:nonzero;"></path></g><g transform="matrix(64,0,0,64,539.078,133.96)"><path d="M0.529,-0.395L0.649,-0.395L0.775,-0.393L0.775,-0.459L0.649,-0.455L0.356,-0.455L0.23,-0.459L0.23,-0.393L0.356,-0.395L0.462,-0.395L0.462,-0.093L0.309,-0.093L0.183,-0.096L0.183,-0.03L0.309,-0.033L0.692,-0.033L0.818,-0.03L0.818,-0.096L0.692,-0.093L0.529,-0.093L0.529,-0.395Z" style="fill:rgb(53,53,53);fill-rule:nonzero;"></path></g><g transform="matrix(64,0,0,64,596.678,133.96)"><path d="M0.717,-0.767C0.775,-0.721 0.815,-0.676 0.854,-0.619L0.899,-0.658C0.856,-0.718 0.818,-0.756 0.761,-0.801L0.717,-0.767ZM0.823,-0.835C0.881,-0.789 0.912,-0.755 0.952,-0.699L0.995,-0.737C0.951,-0.797 0.921,-0.825 0.865,-0.871L0.823,-0.835ZM0.786,-0.663L0.78,-0.668L0.635,-0.664L0.296,-0.664L0.145,-0.668L0.145,-0.595L0.296,-0.599L0.704,-0.599C0.7,-0.301 0.488,-0.093 0.214,-0.049C0.23,-0.029 0.242,-0.008 0.251,0.014C0.554,-0.036 0.773,-0.271 0.784,-0.602L0.786,-0.663Z" style="fill:rgb(53,53,53);fill-rule:nonzero;"></path></g><g transform="matrix(64,0,0,64,656.838,133.96)"><path d="M0.563,-0.409L0.716,-0.409L0.868,-0.406L0.868,-0.477L0.716,-0.473L0.26,-0.473L0.108,-0.477L0.108,-0.406L0.26,-0.409L0.485,-0.409L0.485,-0.373C0.485,-0.195 0.399,-0.093 0.223,-0.03C0.239,-0.013 0.256,0.007 0.267,0.029C0.466,-0.046 0.563,-0.159 0.563,-0.374L0.563,-0.409ZM0.718,-0.752C0.776,-0.706 0.816,-0.661 0.855,-0.604L0.9,-0.643C0.857,-0.703 0.819,-0.741 0.762,-0.786L0.718,-0.752ZM0.824,-0.82C0.882,-0.774 0.913,-0.74 0.953,-0.684L0.996,-0.722C0.952,-0.782 0.922,-0.81 0.866,-0.856L0.824,-0.82ZM0.218,-0.699L0.218,-0.627L0.37,-0.63L0.575,-0.63L0.727,-0.627L0.727,-0.699L0.575,-0.695L0.37,-0.695L0.218,-0.699Z" style="fill:rgb(53,53,53);fill-rule:nonzero;"></path></g><g transform="matrix(64,0,0,64,720.838,133.96)"><path d="M0.297,-0.485L0.297,-0.414L0.293,-0.263L0.373,-0.263L0.369,-0.414L0.369,-0.485L0.629,-0.485L0.629,-0.441C0.629,-0.183 0.549,-0.089 0.308,-0.034C0.322,-0.014 0.333,0.006 0.339,0.026C0.587,-0.027 0.701,-0.143 0.701,-0.442L0.701,-0.485L0.757,-0.485L0.908,-0.482L0.908,-0.553L0.757,-0.549L0.701,-0.549L0.701,-0.696L0.708,-0.744C0.661,-0.756 0.63,-0.763 0.613,-0.763C0.601,-0.763 0.596,-0.76 0.596,-0.756C0.596,-0.747 0.6,-0.743 0.629,-0.723L0.629,-0.549L0.369,-0.549L0.369,-0.683L0.376,-0.731C0.329,-0.743 0.298,-0.75 0.281,-0.75C0.269,-0.75 0.264,-0.747 0.264,-0.743C0.264,-0.734 0.268,-0.73 0.297,-0.71L0.297,-0.549L0.228,-0.549L0.077,-0.553L0.077,-0.482L0.228,-0.485L0.297,-0.485ZM0.73,-0.804C0.775,-0.745 0.802,-0.692 0.825,-0.627L0.879,-0.653C0.852,-0.722 0.825,-0.768 0.781,-0.826L0.73,-0.804ZM0.85,-0.843C0.894,-0.784 0.916,-0.744 0.94,-0.679L0.992,-0.705C0.964,-0.774 0.942,-0.809 0.899,-0.868L0.85,-0.843Z" style="fill:rgb(53,53,53);fill-rule:nonzero;"></path></g><g transform="matrix(64,0,0,64,784.198,133.96)"><path d="M0.763,-0.721C0.692,-0.773 0.676,-0.783 0.667,-0.783C0.66,-0.783 0.654,-0.779 0.654,-0.772C0.654,-0.767 0.661,-0.754 0.67,-0.74C0.523,-0.561 0.316,-0.42 0.09,-0.325C0.107,-0.309 0.123,-0.29 0.135,-0.271C0.262,-0.327 0.376,-0.391 0.481,-0.466L0.497,-0.45L0.497,-0.13L0.493,0.022L0.576,0.022L0.572,-0.131L0.572,-0.405L0.576,-0.47C0.555,-0.476 0.532,-0.483 0.511,-0.488C0.583,-0.543 0.651,-0.603 0.715,-0.671L0.763,-0.721Z" style="fill:rgb(53,53,53);fill-rule:nonzero;"></path></g><g transform="matrix(64,0,0,64,835.398,133.96)"><path d="M0.16,-0.624C0.26,-0.582 0.339,-0.539 0.424,-0.483L0.466,-0.55C0.379,-0.603 0.297,-0.644 0.199,-0.685L0.16,-0.624ZM0.271,-0.028C0.532,-0.12 0.74,-0.248 0.871,-0.569C0.85,-0.585 0.83,-0.6 0.809,-0.621C0.688,-0.31 0.472,-0.168 0.229,-0.096C0.212,-0.111 0.202,-0.118 0.196,-0.118C0.189,-0.118 0.184,-0.113 0.184,-0.105C0.184,-0.095 0.194,-0.07 0.217,-0.009L0.271,-0.028Z" style="fill:rgb(53,53,53);fill-rule:nonzero;"></path></g><g transform="matrix(64,0,0,64,896.838,133.96)"><path d="M0.407,-0.3C0.377,-0.246 0.367,-0.207 0.367,-0.167C0.367,-0.076 0.454,-0.028 0.655,-0.028C0.734,-0.028 0.828,-0.035 0.893,-0.045L0.888,-0.119C0.816,-0.106 0.721,-0.097 0.651,-0.097C0.489,-0.097 0.437,-0.129 0.437,-0.171C0.437,-0.21 0.446,-0.237 0.465,-0.268L0.407,-0.3ZM0.222,0.012C0.204,-0.092 0.199,-0.172 0.199,-0.28C0.199,-0.419 0.217,-0.578 0.266,-0.74C0.204,-0.755 0.185,-0.758 0.171,-0.758C0.158,-0.758 0.151,-0.755 0.151,-0.748C0.151,-0.74 0.16,-0.731 0.181,-0.72C0.145,-0.537 0.129,-0.4 0.129,-0.285C0.129,-0.173 0.134,-0.087 0.147,0.018L0.222,0.012ZM0.418,-0.547C0.503,-0.561 0.596,-0.568 0.681,-0.568C0.752,-0.568 0.798,-0.566 0.851,-0.562L0.852,-0.628C0.803,-0.633 0.755,-0.635 0.692,-0.635C0.604,-0.635 0.505,-0.628 0.414,-0.614L0.418,-0.547Z" style="fill:rgb(53,53,53);fill-rule:nonzero;"></path></g><g transform="matrix(64,0,0,64,960.198,133.96)"><path d="M0.389,-0.728L0.394,-0.781C0.352,-0.785 0.331,-0.786 0.318,-0.786C0.304,-0.786 0.29,-0.783 0.29,-0.774C0.29,-0.765 0.298,-0.758 0.323,-0.751C0.324,-0.701 0.324,-0.651 0.324,-0.604C0.272,-0.598 0.22,-0.595 0.171,-0.595C0.16,-0.595 0.139,-0.595 0.117,-0.597L0.117,-0.536C0.138,-0.535 0.157,-0.534 0.175,-0.534C0.221,-0.534 0.272,-0.537 0.324,-0.543L0.324,-0.329C0.197,-0.26 0.121,-0.185 0.121,-0.124C0.121,-0.056 0.233,0.012 0.307,0.012C0.356,0.012 0.39,-0.026 0.39,-0.105L0.389,-0.289C0.458,-0.323 0.551,-0.35 0.622,-0.35C0.753,-0.35 0.811,-0.288 0.811,-0.212C0.811,-0.114 0.738,-0.058 0.649,-0.058C0.587,-0.058 0.571,-0.076 0.571,-0.117C0.571,-0.15 0.584,-0.197 0.604,-0.23C0.58,-0.236 0.564,-0.241 0.546,-0.249C0.521,-0.207 0.506,-0.148 0.506,-0.11C0.506,-0.034 0.545,0.003 0.648,0.003C0.79,0.003 0.883,-0.08 0.883,-0.207C0.883,-0.324 0.786,-0.408 0.623,-0.408C0.556,-0.408 0.445,-0.38 0.389,-0.355L0.389,-0.55C0.45,-0.559 0.512,-0.569 0.571,-0.581L0.562,-0.643C0.505,-0.63 0.447,-0.62 0.389,-0.612L0.389,-0.728ZM0.324,-0.123C0.324,-0.071 0.311,-0.058 0.293,-0.058C0.251,-0.058 0.19,-0.099 0.19,-0.127C0.19,-0.152 0.238,-0.209 0.324,-0.255L0.324,-0.123ZM0.65,-0.648C0.739,-0.618 0.813,-0.586 0.894,-0.534L0.93,-0.594C0.843,-0.646 0.771,-0.675 0.681,-0.705L0.65,-0.648Z" style="fill:rgb(53,53,53);fill-rule:nonzero;"></path></g><g transform="matrix(64,0,0,64,1022.92,133.96)"><path d="M0.373,-0.509C0.41,-0.507 0.446,-0.506 0.481,-0.506C0.551,-0.506 0.617,-0.507 0.681,-0.511C0.682,-0.456 0.682,-0.399 0.682,-0.34C0.682,-0.151 0.624,-0.056 0.474,-0.021C0.489,-0.001 0.5,0.016 0.512,0.036C0.67,-0.006 0.749,-0.114 0.749,-0.325C0.749,-0.392 0.749,-0.454 0.748,-0.515C0.797,-0.519 0.846,-0.525 0.896,-0.532L0.892,-0.596C0.844,-0.588 0.796,-0.582 0.748,-0.578C0.747,-0.64 0.746,-0.703 0.745,-0.774C0.708,-0.776 0.683,-0.776 0.668,-0.776C0.655,-0.776 0.642,-0.772 0.642,-0.763C0.642,-0.755 0.654,-0.748 0.675,-0.739C0.678,-0.683 0.68,-0.628 0.681,-0.572C0.616,-0.568 0.55,-0.566 0.481,-0.566C0.443,-0.566 0.411,-0.566 0.371,-0.569L0.373,-0.509ZM0.262,-0.016C0.236,-0.111 0.223,-0.226 0.223,-0.34C0.223,-0.45 0.237,-0.587 0.275,-0.761C0.237,-0.77 0.207,-0.775 0.197,-0.775C0.182,-0.775 0.176,-0.773 0.176,-0.766C0.176,-0.76 0.182,-0.755 0.201,-0.743C0.172,-0.584 0.154,-0.443 0.154,-0.319C0.154,-0.217 0.169,-0.1 0.192,-0.005L0.262,-0.016Z" style="fill:rgb(53,53,53);fill-rule:nonzero;"></path></g><g transform="matrix(64,0,0,64,1083.72,133.96)"><path d="M0.368,-0.425L0.425,-0.466C0.504,-0.535 0.571,-0.6 0.661,-0.681C0.694,-0.692 0.704,-0.695 0.704,-0.707C0.704,-0.715 0.696,-0.731 0.645,-0.773L0.636,-0.773L0.614,-0.755C0.494,-0.738 0.344,-0.728 0.219,-0.726L0.222,-0.659C0.355,-0.662 0.46,-0.671 0.563,-0.685C0.424,-0.555 0.319,-0.452 0.147,-0.279L0.147,-0.271L0.191,-0.231L0.2,-0.232C0.316,-0.355 0.426,-0.408 0.551,-0.408C0.698,-0.408 0.757,-0.322 0.757,-0.245C0.757,-0.109 0.64,-0.034 0.472,-0.034C0.385,-0.034 0.329,-0.064 0.329,-0.117C0.329,-0.144 0.364,-0.169 0.398,-0.169C0.444,-0.169 0.486,-0.132 0.517,-0.053L0.575,-0.087C0.547,-0.166 0.478,-0.229 0.396,-0.229C0.327,-0.229 0.267,-0.186 0.267,-0.115C0.267,-0.035 0.34,0.029 0.478,0.029C0.702,0.029 0.833,-0.083 0.833,-0.24C0.833,-0.384 0.716,-0.466 0.564,-0.466C0.504,-0.466 0.446,-0.454 0.371,-0.42L0.368,-0.425Z" style="fill:rgb(53,53,53);fill-rule:nonzero;"></path></g><g transform="matrix(64,0,0,64,1147.08,133.96)"><path d="M0.203,-0.78L0.035,-0.763L0.035,-0.715L0.125,-0.715L0.125,-0.095C0.125,-0.03 0.157,0.004 0.237,0.004C0.258,0.004 0.279,0.002 0.301,-0.004L0.301,-0.056C0.291,-0.054 0.274,-0.053 0.266,-0.053C0.217,-0.053 0.203,-0.068 0.203,-0.116L0.203,-0.78Z" style="fill:rgb(53,53,53);fill-rule:nonzero;"></path></g><g transform="matrix(64,0,0,64,1167.94,133.96)"><path d="M0.165,-0.636C0.195,-0.636 0.219,-0.651 0.219,-0.689C0.219,-0.732 0.195,-0.741 0.165,-0.741C0.139,-0.741 0.114,-0.732 0.114,-0.689C0.114,-0.651 0.139,-0.636 0.165,-0.636ZM0.288,-0.045L0.203,-0.055L0.203,-0.5L0.04,-0.5L0.04,-0.455L0.125,-0.445L0.125,-0.055L0.04,-0.045L0.04,-0L0.288,-0L0.288,-0.045Z" style="fill:rgb(53,53,53);fill-rule:nonzero;"></path></g><g transform="matrix(64,0,0,64,1188.93,133.96)"><path d="M0.619,-0.045L0.534,-0.055L0.534,-0.324C0.534,-0.446 0.477,-0.509 0.365,-0.509C0.301,-0.509 0.245,-0.486 0.198,-0.434L0.198,-0.5L0.04,-0.5L0.04,-0.455L0.125,-0.445L0.125,-0.055L0.04,-0.045L0.04,-0L0.278,-0L0.278,-0.045L0.203,-0.055L0.203,-0.384C0.238,-0.422 0.289,-0.447 0.338,-0.447C0.417,-0.447 0.456,-0.403 0.456,-0.315L0.456,-0.055L0.381,-0.045L0.381,-0L0.619,-0L0.619,-0.045Z" style="fill:rgb(53,53,53);fill-rule:nonzero;"></path></g><g transform="matrix(64,0,0,64,1229.83,133.96)"><path d="M0.475,-0.076C0.438,-0.061 0.383,-0.052 0.33,-0.052C0.203,-0.052 0.141,-0.115 0.141,-0.239L0.497,-0.239L0.497,-0.314C0.497,-0.428 0.417,-0.51 0.293,-0.51C0.145,-0.51 0.06,-0.403 0.06,-0.231C0.06,-0.075 0.143,0.01 0.309,0.01C0.374,0.01 0.429,0.002 0.475,-0.016L0.475,-0.076ZM0.415,-0.297L0.144,-0.297C0.156,-0.401 0.202,-0.45 0.286,-0.45C0.368,-0.45 0.415,-0.398 0.415,-0.307L0.415,-0.297Z" style="fill:rgb(53,53,53);fill-rule:nonzero;"></path></g><g transform="matrix(64,0,0,64,1265.48,133.96)"><path d="M0.325,-0.216L0.341,-0.281L0.076,-0.281L0.06,-0.216L0.325,-0.216Z" style="fill:rgb(53,53,53);fill-rule:nonzero;"></path></g><g transform="matrix(64,0,0,64,485.958,229.96)"><path d="M0.619,-0.045L0.534,-0.055L0.534,-0.324C0.534,-0.446 0.477,-0.509 0.365,-0.509C0.303,-0.509 0.249,-0.488 0.203,-0.44L0.203,-0.78L0.035,-0.763L0.035,-0.715L0.125,-0.715L0.125,-0.055L0.04,-0.045L0.04,-0L0.273,-0L0.273,-0.045L0.203,-0.055L0.203,-0.384C0.238,-0.422 0.289,-0.447 0.338,-0.447C0.417,-0.447 0.456,-0.403 0.456,-0.315L0.456,-0.055L0.381,-0.045L0.381,-0L0.619,-0L0.619,-0.045Z" style="fill:rgb(53,53,53);fill-rule:nonzero;"></path></g><g transform="matrix(64,0,0,64,526.79,229.96)"><path d="M0.475,-0.076C0.438,-0.061 0.383,-0.052 0.33,-0.052C0.203,-0.052 0.141,-0.115 0.141,-0.239L0.497,-0.239L0.497,-0.314C0.497,-0.428 0.417,-0.51 0.293,-0.51C0.145,-0.51 0.06,-0.403 0.06,-0.231C0.06,-0.075 0.143,0.01 0.309,0.01C0.374,0.01 0.429,0.002 0.475,-0.016L0.475,-0.076ZM0.415,-0.297L0.144,-0.297C0.156,-0.401 0.202,-0.45 0.286,-0.45C0.368,-0.45 0.415,-0.398 0.415,-0.307L0.415,-0.297Z" style="fill:rgb(53,53,53);fill-rule:nonzero;"></path></g><g transform="matrix(64,0,0,64,562.438,229.96)"><path d="M0.165,-0.636C0.195,-0.636 0.219,-0.651 0.219,-0.689C0.219,-0.732 0.195,-0.741 0.165,-0.741C0.139,-0.741 0.114,-0.732 0.114,-0.689C0.114,-0.651 0.139,-0.636 0.165,-0.636ZM0.288,-0.045L0.203,-0.055L0.203,-0.5L0.04,-0.5L0.04,-0.455L0.125,-0.445L0.125,-0.055L0.04,-0.045L0.04,-0L0.288,-0L0.288,-0.045Z" style="fill:rgb(53,53,53);fill-rule:nonzero;"></path></g><g transform="matrix(64,0,0,64,583.43,229.96)"><path d="M0.211,-0.038C0.157,-0.038 0.128,-0.055 0.128,-0.098C0.128,-0.125 0.14,-0.143 0.165,-0.165C0.192,-0.154 0.223,-0.148 0.259,-0.148C0.383,-0.148 0.451,-0.215 0.451,-0.337C0.451,-0.399 0.426,-0.448 0.382,-0.477C0.405,-0.495 0.438,-0.5 0.504,-0.5L0.504,-0.569C0.426,-0.569 0.374,-0.546 0.343,-0.497C0.319,-0.505 0.291,-0.51 0.26,-0.51C0.136,-0.51 0.067,-0.442 0.067,-0.321C0.067,-0.264 0.088,-0.219 0.125,-0.189C0.075,-0.149 0.057,-0.115 0.057,-0.073C0.057,-0.038 0.073,-0.008 0.103,0.01C0.044,0.052 0.018,0.088 0.018,0.141C0.018,0.227 0.099,0.27 0.251,0.27C0.412,0.27 0.511,0.206 0.511,0.093C0.511,0.015 0.454,-0.038 0.35,-0.038L0.211,-0.038ZM0.256,-0.454C0.332,-0.454 0.372,-0.414 0.372,-0.326C0.372,-0.243 0.333,-0.203 0.262,-0.203C0.187,-0.203 0.146,-0.245 0.146,-0.332C0.146,-0.415 0.186,-0.454 0.256,-0.454ZM0.322,0.031C0.398,0.031 0.433,0.06 0.433,0.107C0.433,0.182 0.35,0.208 0.257,0.208C0.147,0.208 0.094,0.173 0.094,0.114C0.094,0.08 0.111,0.053 0.143,0.026C0.156,0.029 0.171,0.031 0.187,0.031L0.322,0.031Z" style="fill:rgb(53,53,53);fill-rule:nonzero;"></path></g><g transform="matrix(64,0,0,64,617.094,229.96)"><path d="M0.619,-0.045L0.534,-0.055L0.534,-0.324C0.534,-0.446 0.477,-0.509 0.365,-0.509C0.303,-0.509 0.249,-0.488 0.203,-0.44L0.203,-0.78L0.035,-0.763L0.035,-0.715L0.125,-0.715L0.125,-0.055L0.04,-0.045L0.04,-0L0.273,-0L0.273,-0.045L0.203,-0.055L0.203,-0.384C0.238,-0.422 0.289,-0.447 0.338,-0.447C0.417,-0.447 0.456,-0.403 0.456,-0.315L0.456,-0.055L0.381,-0.045L0.381,-0L0.619,-0L0.619,-0.045Z" style="fill:rgb(53,53,53);fill-rule:nonzero;"></path></g><g transform="matrix(64,0,0,64,657.926,229.96)"><path d="M0.203,-0.445L0.339,-0.445L0.339,-0.5L0.203,-0.5L0.203,-0.674L0.125,-0.638L0.125,-0.5L0.01,-0.485L0.01,-0.445L0.125,-0.445L0.125,-0.124C0.125,-0.038 0.168,0.005 0.258,0.005C0.291,0.005 0.319,0.002 0.352,-0.01L0.352,-0.06C0.325,-0.052 0.304,-0.051 0.282,-0.051C0.227,-0.051 0.203,-0.072 0.203,-0.137L0.203,-0.445Z" style="fill:rgb(53,53,53);fill-rule:nonzero;"></path></g><g transform="matrix(64,0,0,64,684.806,229.96)"><path d="M0.407,-0.3C0.377,-0.246 0.367,-0.207 0.367,-0.167C0.367,-0.076 0.454,-0.028 0.655,-0.028C0.734,-0.028 0.828,-0.035 0.893,-0.045L0.888,-0.119C0.816,-0.106 0.721,-0.097 0.651,-0.097C0.489,-0.097 0.437,-0.129 0.437,-0.171C0.437,-0.21 0.446,-0.237 0.465,-0.268L0.407,-0.3ZM0.222,0.012C0.204,-0.092 0.199,-0.172 0.199,-0.28C0.199,-0.419 0.217,-0.578 0.266,-0.74C0.204,-0.755 0.185,-0.758 0.171,-0.758C0.158,-0.758 0.151,-0.755 0.151,-0.748C0.151,-0.74 0.16,-0.731 0.181,-0.72C0.145,-0.537 0.129,-0.4 0.129,-0.285C0.129,-0.173 0.134,-0.087 0.147,0.018L0.222,0.012ZM0.418,-0.547C0.503,-0.561 0.596,-0.568 0.681,-0.568C0.752,-0.568 0.798,-0.566 0.851,-0.562L0.852,-0.628C0.803,-0.633 0.755,-0.635 0.692,-0.635C0.604,-0.635 0.505,-0.628 0.414,-0.614L0.418,-0.547Z" style="fill:rgb(53,53,53);fill-rule:nonzero;"></path></g><g transform="matrix(64,0,0,64,746.246,229.96)"><path d="M0.109,-0.491C0.331,-0.549 0.471,-0.575 0.578,-0.575C0.744,-0.575 0.814,-0.507 0.814,-0.39C0.814,-0.227 0.693,-0.121 0.319,-0.081C0.332,-0.06 0.341,-0.04 0.35,-0.015C0.719,-0.06 0.89,-0.17 0.89,-0.384C0.89,-0.543 0.796,-0.641 0.585,-0.641C0.469,-0.641 0.311,-0.614 0.092,-0.562L0.109,-0.491Z" style="fill:rgb(53,53,53);fill-rule:nonzero;"></path></g><g transform="matrix(64,0,0,64,808.326,229.96)"><path d="M0.651,-0.529C0.749,-0.414 0.808,-0.309 0.858,-0.178L0.927,-0.214C0.875,-0.345 0.818,-0.439 0.706,-0.566L0.651,-0.529ZM0.433,-0.227C0.396,-0.117 0.36,-0.08 0.335,-0.08C0.294,-0.08 0.208,-0.209 0.208,-0.398C0.208,-0.508 0.216,-0.572 0.24,-0.687C0.177,-0.701 0.16,-0.705 0.149,-0.705C0.141,-0.705 0.131,-0.703 0.131,-0.697C0.131,-0.687 0.142,-0.679 0.158,-0.667C0.142,-0.564 0.136,-0.493 0.136,-0.396C0.136,-0.207 0.227,-0.004 0.337,-0.004C0.385,-0.004 0.44,-0.052 0.489,-0.186C0.469,-0.198 0.452,-0.21 0.433,-0.227Z" style="fill:rgb(53,53,53);fill-rule:nonzero;"></path></g><g transform="matrix(64,0,0,64,869.766,229.96)"><path d="M0.859,-0.646L0.851,-0.709L0.844,-0.713C0.604,-0.677 0.384,-0.646 0.11,-0.616L0.122,-0.547C0.273,-0.568 0.387,-0.583 0.51,-0.601L0.591,-0.617C0.566,-0.604 0.545,-0.591 0.524,-0.577C0.441,-0.508 0.384,-0.406 0.384,-0.284C0.384,-0.042 0.601,0.015 0.801,0.015L0.817,0.015L0.819,-0.063C0.807,-0.062 0.794,-0.062 0.782,-0.062C0.627,-0.062 0.451,-0.101 0.451,-0.289C0.451,-0.404 0.506,-0.499 0.598,-0.563C0.667,-0.612 0.74,-0.631 0.855,-0.641L0.859,-0.646Z" style="fill:rgb(53,53,53);fill-rule:nonzero;"></path></g></g></g></g></g></svg> 